# xmcd CD database file
#
# Track frame offsets:
#	150
#	8871
#	14719
#	28368
#	45917
#	69150
#	73288
#	79188
#	89017
#	95931
#	107072
#	113600
#	116625
#	132188
#	138838
#	154823
#	170060
#
# Disc length: 2336 seconds
#
# Revision: 0
# Processed by: cddbd v1.5.2PL0 Copyright (c) Steve Scherf et al.
# Submitted via: CDex 1.51
#
DISCID=ee091e11
DTITLE=German Trombone Vibration - Colours of Music
DYEAR=2011
DGENRE=Jazz
TTITLE0=Puttin' On The Ritz
TTITLE1=Song of Joy II
TTITLE2=Silberstreif
TTITLE3=First Day Of April
TTITLE4=Canon
TTITLE5=Long and Short I
TTITLE6=Christus I
TTITLE7=Kurz vor dem Frühling
TTITLE8=Christus II
TTITLE9=One Note Samba
TTITLE10=Song of Joy I
TTITLE11=Long and Short II
TTITLE12=Samba de Mogán
TTITLE13=Anthem
TTITLE14=Tico-Tico
TTITLE15=Regio Bossa
TTITLE16=hidden track
EXTD=YEAR: 2011
EXTT0=
EXTT1=
EXTT2=
EXTT3=
EXTT4=
EXTT5=
EXTT6=
EXTT7=
EXTT8=
EXTT9=
EXTT10=
EXTT11=
EXTT12=
EXTT13=
EXTT14=
EXTT15=
EXTT16=
PLAYORDER=
